<svg width="54" height="64" viewBox="0 0 54 64" fill="none" xmlns="http://www.w3.org/2000/svg">
<path d="M47.6471 0H19.0588C15.5647 0 12.7059 2.88 12.7059 6.4V44.8C12.7059 48.32 15.5647 51.2 19.0588 51.2H47.6471C51.1412 51.2 54 48.32 54 44.8V6.4C54 2.88 51.1412 0 47.6471 0ZM47.6471 44.8H19.0588V6.4H47.6471V44.8ZM0 41.6V35.2H6.35294V41.6H0ZM0 24H6.35294V30.4H0V24ZM22.2353 57.6H28.5882V64H22.2353V57.6ZM0 52.8V46.4H6.35294V52.8H0ZM6.35294 64C2.85882 64 0 61.12 0 57.6H6.35294V64ZM17.4706 64H11.1176V57.6H17.4706V64ZM33.3529 64V57.6H39.7059C39.7059 61.12 36.8471 64 33.3529 64ZM6.35294 12.8V19.2H0C0 15.68 2.85882 12.8 6.35294 12.8Z" fill="black"/>
</svg>
