<?xml version="1.0" encoding="iso-8859-1"?>
<!-- Uploaded to: SVG Repo, www.svgrepo.com, Generator: SVG Repo Mixer Tools -->
<svg version="1.1" id="Layer_1" xmlns="http://www.w3.org/2000/svg" xmlns:xlink="http://www.w3.org/1999/xlink" 
	 viewBox="0 0 512 512" xml:space="preserve">
<g>
	<polygon style="fill:#2C3E50;" points="104,198.352 93.456,186.32 258.816,41.296 418.432,186.416 407.68,198.256 258.64,62.736 	
		"/>
	<circle style="fill:#2C3E50;" cx="258.72" cy="64.464" r="37.472"/>
</g>
<rect y="177.264" style="fill:#32bea6;" width="512" height="307.744"/>
<g>
	<path style="fill:#FFFFFF;" d="M170.336,322.672c0,35.072-21.264,56.336-52.528,56.336c-31.744,0-50.304-23.968-50.304-54.432
		c0-32.048,20.464-56.016,52.048-56.016C152.416,268.56,170.336,293.152,170.336,322.672z M93.056,324.096
		c0,20.944,9.84,35.696,26.032,35.696c16.336,0,25.696-15.568,25.696-36.336c0-19.2-9.2-35.696-25.872-35.696
		C102.592,287.76,93.056,303.312,93.056,324.096z"/>
	<path style="fill:#FFFFFF;" d="M186.096,325.68c0-10.16-0.32-18.88-0.64-26.016H206.4l1.104,10.784h0.32
		c5.712-8.256,14.608-12.528,25.872-12.528c16.976,0,32.208,14.752,32.208,39.52c0,28.256-17.936,41.584-35.232,41.584
		c-9.36,0-16.672-3.808-20.16-8.896h-0.32v38.56h-24.128V325.68H186.096z M210.224,343.936c0,1.904,0.16,3.664,0.464,5.072
		c1.6,6.512,7.152,11.424,14.128,11.424c10.48,0,16.672-8.72,16.672-21.888c0-12.368-5.552-21.744-16.336-21.744
		c-6.816,0-12.848,5.072-14.448,12.24c-0.32,1.264-0.464,2.848-0.464,4.288v10.608H210.224z"/>
	<path style="fill:#FFFFFF;" d="M300.064,346.144c0.8,10,10.64,14.768,21.904,14.768c8.256,0,14.928-1.104,21.424-3.168
		l3.168,16.336c-7.936,3.168-17.616,4.768-28.096,4.768c-26.336,0-41.408-15.232-41.408-39.52c0-19.68,12.224-41.424,39.184-41.424
		c25.072,0,34.592,19.52,34.592,38.72c0,4.128-0.464,7.776-0.784,9.52H300.064z M328.464,329.648
		c0-5.872-2.528-15.696-13.648-15.696c-10.16,0-14.288,9.2-14.928,15.696H328.464z"/>
	<path style="fill:#FFFFFF;" d="M365.328,324.416c0-9.68-0.336-17.936-0.64-24.752h20.96l1.104,10.624h0.464
		c3.168-4.928,11.104-12.368,23.968-12.368c15.856,0,27.76,10.464,27.76,33.328v46.016h-24.128v-43.008
		c0-10-3.488-16.832-12.224-16.832c-6.656,0-10.624,4.608-12.224,9.04c-0.624,1.424-0.96,3.808-0.96,6.032v44.752h-24.112v-52.832
		H365.328z"/>
</g>
</svg>
